<svg viewBox="0 0 800 450" xmlns="http://www.w3.org/2000/svg">
  <defs>
    <linearGradient id="g4" x1="0%" y1="0%" x2="100%" y2="100%">
      <stop offset="0%" stop-color="#0F172A"/>
      <stop offset="55%" stop-color="#4A3B12"/>
      <stop offset="100%" stop-color="#F5A524"/>
    </linearGradient>
    <pattern id="grid4" width="40" height="40" patternUnits="userSpaceOnUse">
      <path d="M40 0H0V40" fill="none" stroke="rgba(255,255,255,0.06)" stroke-width="1"/>
    </pattern>
  </defs>
  <rect width="800" height="450" fill="url(#g4)"/>
  <rect width="800" height="450" fill="url(#grid4)"/>
  <circle cx="110" cy="100" r="130" fill="rgba(255,255,255,0.05)"/>
  <circle cx="710" cy="370" r="120" fill="rgba(255,255,255,0.04)"/>

  <!-- bank / column icon -->
  <g transform="translate(300,130)">
    <polygon points="100,0 200,45 0,45" fill="#F1F5F9"/>
    <rect x="0" y="45" width="200" height="12" fill="#F1F5F9"/>
    <rect x="15" y="65" width="18" height="70" fill="#F1F5F9"/>
    <rect x="55" y="65" width="18" height="70" fill="#F1F5F9"/>
    <rect x="95" y="65" width="18" height="70" fill="#F1F5F9"/>
    <rect x="135" y="65" width="18" height="70" fill="#F1F5F9"/>
    <rect x="175" y="65" width="18" height="70" fill="#F1F5F9"/>
    <rect x="-10" y="143" width="220" height="14" rx="3" fill="#F1F5F9"/>
  </g>

  <text x="400" y="360" font-family="Sora, sans-serif" font-size="30" font-weight="700" fill="#F1F5F9" text-anchor="middle">Banking Management System</text>
  <text x="400" y="392" font-family="Poppins, sans-serif" font-size="16" fill="#FBD999" text-anchor="middle" letter-spacing="2">JAVA &#183; MYSQL &#183; JDBC</text>
</svg>
